<svg xmlns="http://www.w3.org/2000/svg" viewBox="0 0 512 512">
  <!-- Тёмный фон -->
  <rect width="512" height="512" rx="96" ry="96" fill="#0a0a0a"/>
  <!-- Кольцо акцента -->
  <circle cx="256" cy="256" r="208" fill="none" stroke="#00ff87" stroke-width="10" stroke-opacity="0.25"/>
  <!-- Фигура ходока (стилизованная) -->
  <g fill="#00ff87">
    <!-- голова -->
    <circle cx="288" cy="128" r="28"/>
    <!-- тело -->
    <path d="M270 168
             L262 250
             L228 332
             C224 342 230 354 240 358
             C250 362 262 356 266 346
             L300 270
             L320 312
             L312 408
             C310 420 318 430 330 432
             C342 434 354 426 356 414
             L368 312
             C370 296 366 280 358 266
             L334 224
             L334 192
             L362 218
             C370 226 382 226 390 218
             C398 210 398 198 390 190
             L348 152
             C340 144 326 142 316 148
             L286 166
             C280 168 274 168 270 168 Z"/>
    <!-- задняя нога -->
    <path d="M232 254
             L184 332
             C178 342 182 356 192 362
             C202 368 216 364 222 354
             L256 296 Z"/>
  </g>
  <!-- Точка пульса -->
  <circle cx="404" cy="404" r="22" fill="#00ff87"/>
  <circle cx="404" cy="404" r="36" fill="none" stroke="#00ff87" stroke-width="4" stroke-opacity="0.5"/>
</svg>
